# Blender 3.4.1
# www.blender.org
mtllib i.mtl
o text
v 2.997897 9.024384 -9.877638
v -2.577139 9.024384 -9.877638
v -2.577139 9.024384 -61.280167
v 2.997897 9.024384 -61.280167
v 2.997897 -9.024384 -9.877638
v -2.577139 -9.024384 -9.877638
v -2.577139 -9.024384 -61.280167
v 2.997897 -9.024384 -61.280167
v 2.997897 -9.024384 -9.877638
v 3.924948 -8.922457 -8.950586
v 4.761252 -8.626654 -8.114282
v 5.424948 -8.165927 -7.450586
v 5.851066 -7.585378 -7.024468
v 5.997897 -6.941834 -6.877638
v 5.997897 6.941834 -6.877638
v 5.851066 7.585378 -7.024468
v 5.424948 8.165927 -7.450586
v 4.761252 8.626654 -8.114282
v 3.924948 8.922457 -8.950586
v 2.997897 9.024384 -9.877638
v -2.577139 -9.024384 -9.877638
v -3.504189 -8.922457 -8.950586
v -4.340495 -8.626654 -8.114282
v -5.004190 -8.165927 -7.450586
v -5.430308 -7.585378 -7.024468
v -5.577139 -6.941834 -6.877638
v -5.577139 6.941834 -6.877638
v -5.430308 7.585378 -7.024468
v -5.004190 8.165927 -7.450586
v -4.340495 8.626654 -8.114282
v -3.504189 8.922457 -8.950586
v -2.577139 9.024384 -9.877638
v -2.577139 -9.024384 -61.280167
v -3.504189 -8.922457 -62.207214
v -4.340495 -8.626654 -63.043522
v -5.004190 -8.165927 -63.707222
v -5.430308 -7.585378 -64.133331
v -5.577139 -6.941834 -64.280167
v -5.577139 6.941834 -64.280167
v -5.430308 7.585378 -64.133331
v -5.004190 8.165927 -63.707222
v -4.340495 8.626654 -63.043522
v -3.504189 8.922457 -62.207214
v -2.577139 9.024384 -61.280167
v 2.997897 -9.024384 -61.280167
v 3.924948 -8.922457 -62.207214
v 4.761252 -8.626654 -63.043522
v 5.424948 -8.165927 -63.707222
v 5.851066 -7.585378 -64.133331
v 5.997897 -6.941834 -64.280167
v 5.997897 6.941834 -64.280167
v 5.851066 7.585378 -64.133331
v 5.424948 8.165927 -63.707222
v 4.761252 8.626654 -63.043522
v 3.924948 8.922457 -62.207214
v 2.997897 9.024384 -61.280167
vn -0.0000 1.0000 -0.0000
vn -0.0000 -1.0000 -0.0000
vn 0.1403 -0.9801 0.1403
vn -0.1403 -0.9801 0.1403
vn -0.0548 -0.9970 0.0548
vn 0.0548 -0.9970 0.0548
vn 0.2694 -0.9246 0.2694
vn -0.2694 -0.9246 0.2694
vn 0.4284 -0.7955 0.4284
vn -0.4284 -0.7955 0.4284
vn 0.6089 -0.5084 0.6089
vn -0.6089 -0.5084 0.6089
vn 0.6991 -0.1502 0.6991
vn -0.6991 -0.1502 0.6991
vn 0.6991 0.1502 0.6991
vn -0.6991 0.1502 0.6991
vn 0.6089 0.5084 0.6089
vn -0.6089 0.5084 0.6089
vn 0.4284 0.7955 0.4284
vn -0.4284 0.7955 0.4284
vn 0.2694 0.9246 0.2694
vn -0.2694 0.9246 0.2694
vn 0.1403 0.9801 0.1403
vn -0.1403 0.9801 0.1403
vn 0.0548 0.9970 0.0548
vn -0.0548 0.9970 0.0548
vn -0.1403 -0.9801 -0.1403
vn -0.0548 -0.9970 -0.0548
vn -0.2694 -0.9246 -0.2694
vn -0.4284 -0.7955 -0.4284
vn -0.6089 -0.5084 -0.6089
vn -0.6991 -0.1502 -0.6991
vn -0.6991 0.1502 -0.6991
vn -0.6089 0.5084 -0.6089
vn -0.4284 0.7955 -0.4284
vn -0.2694 0.9246 -0.2694
vn -0.1403 0.9801 -0.1403
vn -0.0548 0.9970 -0.0548
vn 0.1403 -0.9801 -0.1403
vn 0.0548 -0.9970 -0.0548
vn 0.2694 -0.9246 -0.2694
vn 0.4284 -0.7955 -0.4284
vn 0.6089 -0.5084 -0.6089
vn 0.6991 -0.1502 -0.6991
vn 0.6991 0.1502 -0.6991
vn 0.6089 0.5084 -0.6089
vn 0.4284 0.7955 -0.4284
vn 0.2694 0.9246 -0.2694
vn 0.1403 0.9801 -0.1403
vn 0.0548 0.9970 -0.0548
vt 0.000000 0.000000
vt 0.333333 0.000000
vt 0.666667 0.000000
vt 1.000000 0.000000
vt 0.000000 0.000000
vt 0.333333 0.000000
vt 0.666667 0.000000
vt 1.000000 0.000000
vt 0.000000 0.000000
vt 1.000000 0.000000
vt 0.000000 0.090909
vt 1.000000 0.090909
vt 0.000000 0.181818
vt 1.000000 0.181818
vt 0.000000 0.272727
vt 1.000000 0.272727
vt 0.000000 0.363636
vt 1.000000 0.363636
vt 0.000000 0.454545
vt 1.000000 0.454545
vt 0.000000 0.545455
vt 1.000000 0.545455
vt 0.000000 0.636364
vt 1.000000 0.636364
vt 0.000000 0.727273
vt 1.000000 0.727273
vt 0.000000 0.818182
vt 1.000000 0.818182
vt 0.000000 0.909091
vt 1.000000 0.909091
vt 0.000000 1.000000
vt 1.000000 1.000000
vt 0.250000 0.000000
vt 0.250000 0.090909
vt 0.250000 0.181818
vt 0.250000 0.272727
vt 0.250000 0.363636
vt 0.250000 0.454545
vt 0.250000 0.545455
vt 0.250000 0.636364
vt 0.250000 0.727273
vt 0.250000 0.818182
vt 0.250000 0.909091
vt 0.250000 1.000000
vt 0.500000 0.000000
vt 0.500000 0.090909
vt 0.500000 0.181818
vt 0.500000 0.272727
vt 0.500000 0.363636
vt 0.500000 0.454545
vt 0.500000 0.545455
vt 0.500000 0.636364
vt 0.500000 0.727273
vt 0.500000 0.818182
vt 0.500000 0.909091
vt 0.500000 1.000000
vt 0.750000 0.000000
vt 0.750000 0.090909
vt 0.750000 0.181818
vt 0.750000 0.272727
vt 0.750000 0.363636
vt 0.750000 0.454545
vt 0.750000 0.545455
vt 0.750000 0.636364
vt 0.750000 0.727273
vt 0.750000 0.818182
vt 0.750000 0.909091
vt 0.750000 1.000000
s 0
f 2/2/1 4/4/1 3/3/1
f 2/2/1 1/1/1 4/4/1
f 6/6/2 7/7/2 8/8/2
f 6/6/2 8/8/2 5/5/2
s 1
f 10/11/3 22/34/4 21/33/5 9/9/6
f 11/13/7 23/35/8 22/34/4 10/11/3
f 12/15/9 24/36/10 23/35/8 11/13/7
f 13/17/11 25/37/12 24/36/10 12/15/9
f 14/19/13 26/38/14 25/37/12 13/17/11
f 15/21/15 27/39/16 26/38/14 14/19/13
f 16/23/17 28/40/18 27/39/16 15/21/15
f 17/25/19 29/41/20 28/40/18 16/23/17
f 18/27/21 30/42/22 29/41/20 17/25/19
f 19/29/23 31/43/24 30/42/22 18/27/21
f 20/31/25 32/44/26 31/43/24 19/29/23
f 22/34/4 34/46/27 33/45/28 21/33/5
f 23/35/8 35/47/29 34/46/27 22/34/4
f 24/36/10 36/48/30 35/47/29 23/35/8
f 25/37/12 37/49/31 36/48/30 24/36/10
f 26/38/14 38/50/32 37/49/31 25/37/12
f 27/39/16 39/51/33 38/50/32 26/38/14
f 28/40/18 40/52/34 39/51/33 27/39/16
f 29/41/20 41/53/35 40/52/34 28/40/18
f 30/42/22 42/54/36 41/53/35 29/41/20
f 31/43/24 43/55/37 42/54/36 30/42/22
f 32/44/26 44/56/38 43/55/37 31/43/24
f 34/46/27 46/58/39 45/57/40 33/45/28
f 35/47/29 47/59/41 46/58/39 34/46/27
f 36/48/30 48/60/42 47/59/41 35/47/29
f 37/49/31 49/61/43 48/60/42 36/48/30
f 38/50/32 50/62/44 49/61/43 37/49/31
f 39/51/33 51/63/45 50/62/44 38/50/32
f 40/52/34 52/64/46 51/63/45 39/51/33
f 41/53/35 53/65/47 52/64/46 40/52/34
f 42/54/36 54/66/48 53/65/47 41/53/35
f 43/55/37 55/67/49 54/66/48 42/54/36
f 44/56/38 56/68/50 55/67/49 43/55/37
f 46/58/39 10/12/3 9/10/6 45/57/40
f 47/59/41 11/14/7 10/12/3 46/58/39
f 48/60/42 12/16/9 11/14/7 47/59/41
f 49/61/43 13/18/11 12/16/9 48/60/42
f 50/62/44 14/20/13 13/18/11 49/61/43
f 51/63/45 15/22/15 14/20/13 50/62/44
f 52/64/46 16/24/17 15/22/15 51/63/45
f 53/65/47 17/26/19 16/24/17 52/64/46
f 54/66/48 18/28/21 17/26/19 53/65/47
f 55/67/49 19/30/23 18/28/21 54/66/48
f 56/68/50 20/32/25 19/30/23 55/67/49
