# Blender 3.4.1
# www.blender.org
mtllib n.mtl
o text
v -11.500701 9.024384 -9.877638
v -16.865358 9.024384 -9.877638
v -16.865358 9.024384 -61.280167
v -11.150070 9.024384 -61.280167
v 11.009817 9.024384 -20.922518
v 11.009817 9.024384 -61.280167
v 16.339411 9.024384 -61.280167
v 16.339411 9.024384 -9.877638
v 10.624125 9.024384 -9.877638
v -11.500701 9.024384 -50.270344
v -11.500701 -9.024384 -9.877638
v -16.865358 -9.024384 -9.877638
v -16.865358 -9.024384 -61.280167
v -11.150070 -9.024384 -61.280167
v 11.009817 -9.024384 -20.922518
v 11.009817 -9.024384 -61.280167
v 16.339411 -9.024384 -61.280167
v 16.339411 -9.024384 -9.877638
v 10.624125 -9.024384 -9.877638
v -11.500701 -9.024384 -50.270344
v -11.500701 -9.024384 -9.877638
v -10.573650 -8.922457 -8.950586
v -9.737346 -8.626654 -8.114282
v -9.073650 -8.165927 -7.450586
v -8.647532 -7.585378 -7.024468
v -8.500701 -6.941834 -6.877638
v -8.500701 6.941834 -6.877638
v -8.647532 7.585378 -7.024468
v -9.073650 8.165927 -7.450586
v -9.737346 8.626654 -8.114282
v -10.573650 8.922457 -8.950586
v -11.500701 9.024384 -9.877638
v -16.865358 -9.024384 -9.877638
v -17.792408 -8.922457 -8.950586
v -18.628714 -8.626654 -8.114282
v -19.292408 -8.165927 -7.450586
v -19.718529 -7.585378 -7.024468
v -19.865358 -6.941834 -6.877638
v -19.865358 6.941834 -6.877638
v -19.718529 7.585378 -7.024468
v -19.292408 8.165927 -7.450586
v -18.628714 8.626654 -8.114282
v -17.792408 8.922457 -8.950586
v -16.865358 9.024384 -9.877638
v -16.865358 -9.024384 -61.280167
v -17.792408 -8.922457 -62.207214
v -18.628714 -8.626654 -63.043522
v -19.292408 -8.165927 -63.707222
v -19.718529 -7.585378 -64.133331
v -19.865358 -6.941834 -64.280167
v -19.865358 6.941834 -64.280167
v -19.718529 7.585378 -64.133331
v -19.292408 8.165927 -63.707222
v -18.628714 8.626654 -63.043522
v -17.792408 8.922457 -62.207214
v -16.865358 9.024384 -61.280167
v -11.150070 -9.024384 -61.280167
v -10.601494 -8.922457 -62.207214
v -10.106615 -8.626654 -63.043522
v -9.713877 -8.165927 -63.707222
v -9.461724 -7.585378 -64.133331
v -9.374838 -6.941834 -64.280167
v -9.374838 6.941834 -64.280167
v -9.461724 7.585378 -64.133331
v -9.713877 8.165927 -63.707222
v -10.106615 8.626654 -63.043522
v -10.601494 8.922457 -62.207214
v -11.150070 9.024384 -61.280167
v 11.009817 -9.024384 -20.922518
v 10.082766 -8.922457 -24.536985
v 9.246461 -8.626654 -27.797646
v 8.582766 -8.165927 -30.385319
v 8.156647 -7.585378 -32.046707
v 8.009817 -6.941834 -32.619183
v 8.009817 6.941834 -32.619183
v 8.156647 7.585378 -32.046707
v 8.582766 8.165927 -30.385319
v 9.246461 8.626654 -27.797646
v 10.082766 8.922457 -24.536985
v 11.009817 9.024384 -20.922518
v 11.009817 -9.024384 -61.280167
v 10.082766 -8.922457 -62.207214
v 9.246461 -8.626654 -63.043522
v 8.582766 -8.165927 -63.707222
v 8.156648 -7.585378 -64.133331
v 8.009817 -6.941834 -64.280167
v 8.009817 6.941834 -64.280167
v 8.156648 7.585378 -64.133331
v 8.582766 8.165927 -63.707222
v 9.246461 8.626654 -63.043522
v 10.082766 8.922457 -62.207214
v 11.009817 9.024384 -61.280167
v 16.339411 -9.024384 -61.280167
v 17.266460 -8.922457 -62.207214
v 18.102766 -8.626654 -63.043522
v 18.766460 -8.165927 -63.707222
v 19.192581 -7.585378 -64.133331
v 19.339411 -6.941834 -64.280167
v 19.339411 6.941834 -64.280167
v 19.192581 7.585378 -64.133331
v 18.766460 8.165927 -63.707222
v 18.102766 8.626654 -63.043522
v 17.266460 8.922457 -62.207214
v 16.339411 9.024384 -61.280167
v 16.339411 -9.024384 -9.877638
v 17.266460 -8.922457 -8.950586
v 18.102766 -8.626654 -8.114282
v 18.766460 -8.165927 -7.450586
v 19.192581 -7.585378 -7.024468
v 19.339411 -6.941834 -6.877638
v 19.339411 6.941834 -6.877638
v 19.192581 7.585378 -7.024468
v 18.766460 8.165927 -7.450586
v 18.102766 8.626654 -8.114282
v 17.266460 8.922457 -8.950586
v 16.339411 9.024384 -9.877638
v 10.624125 -9.024384 -9.877638
v 10.074900 -8.922457 -8.950586
v 9.579438 -8.626654 -8.114282
v 9.186236 -8.165927 -7.450586
v 8.933786 -7.585378 -7.024468
v 8.846798 -6.941834 -6.877638
v 8.846798 6.941834 -6.877638
v 8.933786 7.585378 -7.024468
v 9.186236 8.165927 -7.450586
v 9.579438 8.626654 -8.114282
v 10.074900 8.922457 -8.950586
v 10.624125 9.024384 -9.877638
v -11.500701 -9.024384 -50.270344
v -10.573651 -8.922457 -46.648094
v -9.737346 -8.626654 -43.380417
v -9.073650 -8.165927 -40.787174
v -8.647532 -7.585378 -39.122211
v -8.500702 -6.941834 -38.548504
v -8.500702 6.941834 -38.548504
v -8.647532 7.585378 -39.122211
v -9.073650 8.165927 -40.787174
v -9.737346 8.626654 -43.380417
v -10.573651 8.922457 -46.648094
v -11.500701 9.024384 -50.270344
vn -0.0000 1.0000 -0.0000
vn -0.0000 -1.0000 -0.0000
vn 0.1403 -0.9801 0.1403
vn -0.1403 -0.9801 0.1403
vn -0.0548 -0.9970 0.0548
vn 0.0548 -0.9970 0.0548
vn 0.2694 -0.9246 0.2694
vn -0.2694 -0.9246 0.2694
vn 0.4284 -0.7955 0.4284
vn -0.4284 -0.7955 0.4284
vn 0.6089 -0.5084 0.6089
vn -0.6089 -0.5084 0.6089
vn 0.6991 -0.1502 0.6991
vn -0.6991 -0.1502 0.6991
vn 0.6991 0.1502 0.6991
vn -0.6991 0.1502 0.6991
vn 0.6089 0.5084 0.6089
vn -0.6089 0.5084 0.6089
vn 0.4284 0.7955 0.4284
vn -0.4284 0.7955 0.4284
vn 0.2694 0.9246 0.2694
vn -0.2694 0.9246 0.2694
vn 0.1403 0.9801 0.1403
vn -0.1403 0.9801 0.1403
vn 0.0548 0.9970 0.0548
vn -0.0548 0.9970 0.0548
vn -0.1403 -0.9801 -0.1403
vn -0.0548 -0.9970 -0.0548
vn -0.2694 -0.9246 -0.2694
vn -0.4284 -0.7955 -0.4284
vn -0.6089 -0.5084 -0.6089
vn -0.6991 -0.1502 -0.6991
vn -0.6991 0.1502 -0.6991
vn -0.6089 0.5084 -0.6089
vn -0.4284 0.7955 -0.4284
vn -0.2694 0.9246 -0.2694
vn -0.1403 0.9801 -0.1403
vn -0.0548 0.9970 -0.0548
vn 0.1137 -0.9748 -0.1921
vn 0.0480 -0.9956 -0.0811
vn 0.2193 -0.9025 -0.3707
vn 0.3376 -0.7488 -0.5705
vn 0.4538 -0.4537 -0.7669
vn 0.5052 -0.1267 -0.8537
vn 0.5052 0.1267 -0.8537
vn 0.4538 0.4537 -0.7669
vn 0.3376 0.7488 -0.5705
vn 0.2193 0.9025 -0.3707
vn 0.1137 0.9748 -0.1921
vn 0.0480 0.9956 -0.0811
vn -0.0080 -0.9995 -0.0312
vn -0.0068 -0.9996 -0.0264
vn -0.0236 -0.9955 -0.0919
vn -0.0464 -0.9824 -0.1808
vn -0.0976 -0.9196 -0.3806
vn -0.2200 -0.4645 -0.8578
vn -0.2200 0.4645 -0.8578
vn -0.0976 0.9196 -0.3806
vn -0.0464 0.9824 -0.1808
vn -0.0236 0.9955 -0.0919
vn -0.0080 0.9995 -0.0312
vn -0.0068 0.9996 -0.0264
vn 0.1403 -0.9801 -0.1403
vn 0.0548 -0.9970 -0.0548
vn 0.2694 -0.9246 -0.2694
vn 0.4284 -0.7955 -0.4284
vn 0.6089 -0.5084 -0.6089
vn 0.6991 -0.1502 -0.6991
vn 0.6991 0.1502 -0.6991
vn 0.6089 0.5084 -0.6089
vn 0.4284 0.7955 -0.4284
vn 0.2694 0.9246 -0.2694
vn 0.1403 0.9801 -0.1403
vn 0.0548 0.9970 -0.0548
vn -0.1137 -0.9748 0.1920
vn -0.0480 -0.9956 0.0810
vn -0.2195 -0.9025 0.3705
vn -0.3378 -0.7488 0.5702
vn -0.4542 -0.4538 0.7667
vn -0.5056 -0.1267 0.8534
vn -0.5056 0.1267 0.8534
vn -0.4542 0.4538 0.7667
vn -0.3378 0.7488 0.5702
vn -0.2195 0.9025 0.3705
vn -0.1137 0.9748 0.1920
vn -0.0480 0.9956 0.0810
vn 0.0080 -0.9995 0.0311
vn 0.0068 -0.9996 0.0264
vn 0.0235 -0.9955 0.0917
vn 0.0462 -0.9825 0.1805
vn 0.0972 -0.9199 0.3799
vn 0.2195 -0.4653 0.8575
vn 0.2195 0.4653 0.8575
vn 0.0972 0.9199 0.3799
vn 0.0462 0.9825 0.1805
vn 0.0235 0.9955 0.0917
vn 0.0080 0.9995 0.0311
vn 0.0068 0.9996 0.0264
vt 0.000000 0.000000
vt 0.111111 0.000000
vt 0.222222 0.000000
vt 0.333333 0.000000
vt 0.444444 0.000000
vt 0.555556 0.000000
vt 0.666667 0.000000
vt 0.777778 0.000000
vt 0.888889 0.000000
vt 1.000000 0.000000
vt 0.000000 0.000000
vt 0.111111 0.000000
vt 0.222222 0.000000
vt 0.333333 0.000000
vt 0.444444 0.000000
vt 0.555556 0.000000
vt 0.666667 0.000000
vt 0.777778 0.000000
vt 0.888889 0.000000
vt 1.000000 0.000000
vt 0.000000 0.000000
vt 1.000000 0.000000
vt 0.000000 0.090909
vt 1.000000 0.090909
vt 0.000000 0.181818
vt 1.000000 0.181818
vt 0.000000 0.272727
vt 1.000000 0.272727
vt 0.000000 0.363636
vt 1.000000 0.363636
vt 0.000000 0.454545
vt 1.000000 0.454545
vt 0.000000 0.545455
vt 1.000000 0.545455
vt 0.000000 0.636364
vt 1.000000 0.636364
vt 0.000000 0.727273
vt 1.000000 0.727273
vt 0.000000 0.818182
vt 1.000000 0.818182
vt 0.000000 0.909091
vt 1.000000 0.909091
vt 0.000000 1.000000
vt 1.000000 1.000000
vt 0.100000 0.000000
vt 0.100000 0.090909
vt 0.100000 0.181818
vt 0.100000 0.272727
vt 0.100000 0.363636
vt 0.100000 0.454545
vt 0.100000 0.545455
vt 0.100000 0.636364
vt 0.100000 0.727273
vt 0.100000 0.818182
vt 0.100000 0.909091
vt 0.100000 1.000000
vt 0.200000 0.000000
vt 0.200000 0.090909
vt 0.200000 0.181818
vt 0.200000 0.272727
vt 0.200000 0.363636
vt 0.200000 0.454545
vt 0.200000 0.545455
vt 0.200000 0.636364
vt 0.200000 0.727273
vt 0.200000 0.818182
vt 0.200000 0.909091
vt 0.200000 1.000000
vt 0.300000 0.000000
vt 0.300000 0.090909
vt 0.300000 0.181818
vt 0.300000 0.272727
vt 0.300000 0.363636
vt 0.300000 0.454545
vt 0.300000 0.545455
vt 0.300000 0.636364
vt 0.300000 0.727273
vt 0.300000 0.818182
vt 0.300000 0.909091
vt 0.300000 1.000000
vt 0.400000 0.000000
vt 0.400000 0.090909
vt 0.400000 0.181818
vt 0.400000 0.272727
vt 0.400000 0.363636
vt 0.400000 0.454545
vt 0.400000 0.545455
vt 0.400000 0.636364
vt 0.400000 0.727273
vt 0.400000 0.818182
vt 0.400000 0.909091
vt 0.400000 1.000000
vt 0.500000 0.000000
vt 0.500000 0.090909
vt 0.500000 0.181818
vt 0.500000 0.272727
vt 0.500000 0.363636
vt 0.500000 0.454545
vt 0.500000 0.545455
vt 0.500000 0.636364
vt 0.500000 0.727273
vt 0.500000 0.818182
vt 0.500000 0.909091
vt 0.500000 1.000000
vt 0.600000 0.000000
vt 0.600000 0.090909
vt 0.600000 0.181818
vt 0.600000 0.272727
vt 0.600000 0.363636
vt 0.600000 0.454545
vt 0.600000 0.545455
vt 0.600000 0.636364
vt 0.600000 0.727273
vt 0.600000 0.818182
vt 0.600000 0.909091
vt 0.600000 1.000000
vt 0.700000 0.000000
vt 0.700000 0.090909
vt 0.700000 0.181818
vt 0.700000 0.272727
vt 0.700000 0.363636
vt 0.700000 0.454545
vt 0.700000 0.545455
vt 0.700000 0.636364
vt 0.700000 0.727273
vt 0.700000 0.818182
vt 0.700000 0.909091
vt 0.700000 1.000000
vt 0.800000 0.000000
vt 0.800000 0.090909
vt 0.800000 0.181818
vt 0.800000 0.272727
vt 0.800000 0.363636
vt 0.800000 0.454545
vt 0.800000 0.545455
vt 0.800000 0.636364
vt 0.800000 0.727273
vt 0.800000 0.818182
vt 0.800000 0.909091
vt 0.800000 1.000000
vt 0.900000 0.000000
vt 0.900000 0.090909
vt 0.900000 0.181818
vt 0.900000 0.272727
vt 0.900000 0.363636
vt 0.900000 0.454545
vt 0.900000 0.545455
vt 0.900000 0.636364
vt 0.900000 0.727273
vt 0.900000 0.818182
vt 0.900000 0.909091
vt 0.900000 1.000000
s 0
f 2/2/1 4/4/1 3/3/1
f 2/2/1 10/10/1 4/4/1
f 10/10/1 5/5/1 4/4/1
f 5/5/1 7/7/1 6/6/1
f 5/5/1 8/8/1 7/7/1
f 2/2/1 1/1/1 10/10/1
f 9/9/1 5/5/1 10/10/1
f 9/9/1 8/8/1 5/5/1
f 12/12/2 13/13/2 14/14/2
f 12/12/2 14/14/2 20/20/2
f 20/20/2 14/14/2 15/15/2
f 15/15/2 16/16/2 17/17/2
f 15/15/2 17/17/2 18/18/2
f 12/12/2 20/20/2 11/11/2
f 19/19/2 20/20/2 15/15/2
f 19/19/2 15/15/2 18/18/2
s 1
f 22/23/3 34/46/4 33/45/5 21/21/6
f 23/25/7 35/47/8 34/46/4 22/23/3
f 24/27/9 36/48/10 35/47/8 23/25/7
f 25/29/11 37/49/12 36/48/10 24/27/9
f 26/31/13 38/50/14 37/49/12 25/29/11
f 27/33/15 39/51/16 38/50/14 26/31/13
f 28/35/17 40/52/18 39/51/16 27/33/15
f 29/37/19 41/53/20 40/52/18 28/35/17
f 30/39/21 42/54/22 41/53/20 29/37/19
f 31/41/23 43/55/24 42/54/22 30/39/21
f 32/43/25 44/56/26 43/55/24 31/41/23
f 34/46/4 46/58/27 45/57/28 33/45/5
f 35/47/8 47/59/29 46/58/27 34/46/4
f 36/48/10 48/60/30 47/59/29 35/47/8
f 37/49/12 49/61/31 48/60/30 36/48/10
f 38/50/14 50/62/32 49/61/31 37/49/12
f 39/51/16 51/63/33 50/62/32 38/50/14
f 40/52/18 52/64/34 51/63/33 39/51/16
f 41/53/20 53/65/35 52/64/34 40/52/18
f 42/54/22 54/66/36 53/65/35 41/53/20
f 43/55/24 55/67/37 54/66/36 42/54/22
f 44/56/26 56/68/38 55/67/37 43/55/24
f 46/58/27 58/70/39 57/69/40 45/57/28
f 47/59/29 59/71/41 58/70/39 46/58/27
f 48/60/30 60/72/42 59/71/41 47/59/29
f 49/61/31 61/73/43 60/72/42 48/60/30
f 50/62/32 62/74/44 61/73/43 49/61/31
f 51/63/33 63/75/45 62/74/44 50/62/32
f 52/64/34 64/76/46 63/75/45 51/63/33
f 53/65/35 65/77/47 64/76/46 52/64/34
f 54/66/36 66/78/48 65/77/47 53/65/35
f 55/67/37 67/79/49 66/78/48 54/66/36
f 56/68/38 68/80/50 67/79/49 55/67/37
f 58/70/39 70/82/51 69/81/52 57/69/40
f 59/71/41 71/83/53 70/82/51 58/70/39
f 60/72/42 72/84/54 71/83/53 59/71/41
f 61/73/43 73/85/55 72/84/54 60/72/42
f 62/74/44 74/86/56 73/85/55 61/73/43
f 63/75/45 75/87/57 74/86/56 62/74/44
f 64/76/46 76/88/58 75/87/57 63/75/45
f 65/77/47 77/89/59 76/88/58 64/76/46
f 66/78/48 78/90/60 77/89/59 65/77/47
f 67/79/49 79/91/61 78/90/60 66/78/48
f 68/80/50 80/92/62 79/91/61 67/79/49
f 70/82/51 82/94/27 81/93/28 69/81/52
f 71/83/53 83/95/29 82/94/27 70/82/51
f 72/84/54 84/96/30 83/95/29 71/83/53
f 73/85/55 85/97/31 84/96/30 72/84/54
f 74/86/56 86/98/32 85/97/31 73/85/55
f 75/87/57 87/99/33 86/98/32 74/86/56
f 76/88/58 88/100/34 87/99/33 75/87/57
f 77/89/59 89/101/35 88/100/34 76/88/58
f 78/90/60 90/102/36 89/101/35 77/89/59
f 79/91/61 91/103/37 90/102/36 78/90/60
f 80/92/62 92/104/38 91/103/37 79/91/61
f 82/94/27 94/106/63 93/105/64 81/93/28
f 83/95/29 95/107/65 94/106/63 82/94/27
f 84/96/30 96/108/66 95/107/65 83/95/29
f 85/97/31 97/109/67 96/108/66 84/96/30
f 86/98/32 98/110/68 97/109/67 85/97/31
f 87/99/33 99/111/69 98/110/68 86/98/32
f 88/100/34 100/112/70 99/111/69 87/99/33
f 89/101/35 101/113/71 100/112/70 88/100/34
f 90/102/36 102/114/72 101/113/71 89/101/35
f 91/103/37 103/115/73 102/114/72 90/102/36
f 92/104/38 104/116/74 103/115/73 91/103/37
f 94/106/63 106/118/3 105/117/6 93/105/64
f 95/107/65 107/119/7 106/118/3 94/106/63
f 96/108/66 108/120/9 107/119/7 95/107/65
f 97/109/67 109/121/11 108/120/9 96/108/66
f 98/110/68 110/122/13 109/121/11 97/109/67
f 99/111/69 111/123/15 110/122/13 98/110/68
f 100/112/70 112/124/17 111/123/15 99/111/69
f 101/113/71 113/125/19 112/124/17 100/112/70
f 102/114/72 114/126/21 113/125/19 101/113/71
f 103/115/73 115/127/23 114/126/21 102/114/72
f 104/116/74 116/128/25 115/127/23 103/115/73
f 106/118/3 118/130/75 117/129/76 105/117/6
f 107/119/7 119/131/77 118/130/75 106/118/3
f 108/120/9 120/132/78 119/131/77 107/119/7
f 109/121/11 121/133/79 120/132/78 108/120/9
f 110/122/13 122/134/80 121/133/79 109/121/11
f 111/123/15 123/135/81 122/134/80 110/122/13
f 112/124/17 124/136/82 123/135/81 111/123/15
f 113/125/19 125/137/83 124/136/82 112/124/17
f 114/126/21 126/138/84 125/137/83 113/125/19
f 115/127/23 127/139/85 126/138/84 114/126/21
f 116/128/25 128/140/86 127/139/85 115/127/23
f 118/130/75 130/142/87 129/141/88 117/129/76
f 119/131/77 131/143/89 130/142/87 118/130/75
f 120/132/78 132/144/90 131/143/89 119/131/77
f 121/133/79 133/145/91 132/144/90 120/132/78
f 122/134/80 134/146/92 133/145/91 121/133/79
f 123/135/81 135/147/93 134/146/92 122/134/80
f 124/136/82 136/148/94 135/147/93 123/135/81
f 125/137/83 137/149/95 136/148/94 124/136/82
f 126/138/84 138/150/96 137/149/95 125/137/83
f 127/139/85 139/151/97 138/150/96 126/138/84
f 128/140/86 140/152/98 139/151/97 127/139/85
f 130/142/87 22/24/3 21/22/6 129/141/88
f 131/143/89 23/26/7 22/24/3 130/142/87
f 132/144/90 24/28/9 23/26/7 131/143/89
f 133/145/91 25/30/11 24/28/9 132/144/90
f 134/146/92 26/32/13 25/30/11 133/145/91
f 135/147/93 27/34/15 26/32/13 134/146/92
f 136/148/94 28/36/17 27/34/15 135/147/93
f 137/149/95 29/38/19 28/36/17 136/148/94
f 138/150/96 30/40/21 29/38/19 137/149/95
f 139/151/97 31/42/23 30/40/21 138/150/96
f 140/152/98 32/44/25 31/42/23 139/151/97
